<?xml version="1.0" encoding="UTF-8" standalone="no"?>
<!DOCTYPE svg PUBLIC "-//W3C//DTD SVG 1.1//EN"
 "http://www.w3.org/Graphics/SVG/1.1/DTD/svg11.dtd">
<!-- Generated by graphviz version 2.40.1 (20161225.0304)
 -->
<!-- Title: Modules Pages: 1 -->
<svg width="422pt" height="188pt"
 viewBox="0.00 0.00 422.14 188.00" xmlns="http://www.w3.org/2000/svg" xmlns:xlink="http://www.w3.org/1999/xlink">
<g id="graph0" class="graph" transform="scale(1 1) rotate(0) translate(4 184)">
<title>Modules</title>
<polygon fill="#ffffff" stroke="transparent" points="-4,4 -4,-184 418.1424,-184 418.1424,4 -4,4"/>
<!-- ./package.json -->
<g id="node1" class="node">
<title>./package.json</title>
<ellipse fill="#000000" stroke="#000000" cx="215.1961" cy="-162" rx="50.0912" ry="18"/>
<text text-anchor="middle" x="215.1961" y="-158.3" font-family="Times,serif" font-size="14.00" fill="#ffffff">./package.json</text>
</g>
<!-- ./index.js -->
<g id="node2" class="node">
<title>./index.js</title>
<ellipse fill="none" stroke="#000000" cx="215.1961" cy="-90" rx="35.9954" ry="18"/>
<text text-anchor="middle" x="215.1961" y="-86.3" font-family="Times,serif" font-size="14.00" fill="#000000">./index.js</text>
</g>
<!-- ./package.json&#45;&gt;./index.js -->
<g id="edge5" class="edge">
<title>./package.json&#45;&gt;./index.js</title>
<path fill="none" stroke="#000000" d="M215.1961,-143.8314C215.1961,-136.131 215.1961,-126.9743 215.1961,-118.4166"/>
<polygon fill="#000000" stroke="#000000" points="218.6962,-118.4132 215.1961,-108.4133 211.6962,-118.4133 218.6962,-118.4132"/>
</g>
<!-- ./lib/static.js -->
<g id="node3" class="node">
<title>./lib/static.js</title>
<ellipse fill="none" stroke="#000000" cx="44.1961" cy="-18" rx="44.393" ry="18"/>
<text text-anchor="middle" x="44.1961" y="-14.3" font-family="Times,serif" font-size="14.00" fill="#000000">./lib/static.js</text>
</g>
<!-- ./index.js&#45;&gt;./lib/static.js -->
<g id="edge1" class="edge">
<title>./index.js&#45;&gt;./lib/static.js</title>
<path fill="none" stroke="#000000" d="M187.722,-78.432C159.8298,-66.6879 116.3384,-48.3757 84.537,-34.9857"/>
<polygon fill="#000000" stroke="#000000" points="85.6477,-31.6558 75.0731,-31.0009 82.9313,-38.1072 85.6477,-31.6558"/>
</g>
<!-- ./lib/dynamic.js -->
<g id="node4" class="node">
<title>./lib/dynamic.js</title>
<ellipse fill="none" stroke="#000000" cx="159.1961" cy="-18" rx="53.0913" ry="18"/>
<text text-anchor="middle" x="159.1961" y="-14.3" font-family="Times,serif" font-size="14.00" fill="#000000">./lib/dynamic.js</text>
</g>
<!-- ./index.js&#45;&gt;./lib/dynamic.js -->
<g id="edge2" class="edge">
<title>./index.js&#45;&gt;./lib/dynamic.js</title>
<path fill="none" stroke="#000000" d="M201.9249,-72.937C195.1206,-64.1886 186.694,-53.3545 179.1271,-43.6256"/>
<polygon fill="#000000" stroke="#000000" points="181.6632,-41.1854 172.761,-35.4407 176.1378,-45.483 181.6632,-41.1854"/>
</g>
<!-- ./lib/opt2.js -->
<g id="node5" class="node">
<title>./lib/opt2.js</title>
<ellipse fill="none" stroke="#000000" cx="272.1961" cy="-18" rx="41.6928" ry="18"/>
<text text-anchor="middle" x="272.1961" y="-14.3" font-family="Times,serif" font-size="14.00" fill="#000000">./lib/opt2.js</text>
</g>
<!-- ./index.js&#45;&gt;./lib/opt2.js -->
<g id="edge3" class="edge">
<title>./index.js&#45;&gt;./lib/opt2.js</title>
<path fill="none" stroke="#000000" d="M228.7043,-72.937C235.7,-64.1003 244.3806,-53.1354 252.1423,-43.3311"/>
<polygon fill="#000000" stroke="#000000" points="254.926,-45.4536 258.3889,-35.4407 249.4376,-41.1087 254.926,-45.4536"/>
</g>
<!-- ./lib/lazy.js -->
<g id="node6" class="node">
<title>./lib/lazy.js</title>
<ellipse fill="none" stroke="#000000" cx="373.1961" cy="-18" rx="40.8928" ry="18"/>
<text text-anchor="middle" x="373.1961" y="-14.3" font-family="Times,serif" font-size="14.00" fill="#000000">./lib/lazy.js</text>
</g>
<!-- ./index.js&#45;&gt;./lib/lazy.js -->
<g id="edge4" class="edge">
<title>./index.js&#45;&gt;./lib/lazy.js</title>
<path fill="none" stroke="#000000" d="M241.9986,-77.7862C267.6274,-66.1072 306.5225,-48.3829 335.3146,-35.2624"/>
<polygon fill="#000000" stroke="#000000" points="337.0095,-38.3364 344.6578,-31.0048 334.1067,-31.9666 337.0095,-38.3364"/>
</g>
</g>
</svg>
